<?xml version="1.0" standalone="no"?>
<!DOCTYPE svg PUBLIC "-//W3C//DTD SVG 20010904//EN"
 "http://www.w3.org/TR/2001/REC-SVG-20010904/DTD/svg10.dtd">
<svg version="1.0" xmlns="http://www.w3.org/2000/svg"
 width="3000.000000pt" height="2000.000000pt" viewBox="0 0 3000.000000 2000.000000"
 preserveAspectRatio="xMidYMid meet">

<g transform="translate(0.000000,2000.000000) scale(0.100000,-0.100000)"
fill="#000000" stroke="none">
<path d="M15345 17924 c-22 -2 -96 -9 -165 -15 -720 -62 -1330 -379 -1711
-889 -257 -344 -398 -708 -466 -1205 -25 -184 -25 -718 0 -925 42 -342 121
-737 147 -733 8 1 48 14 88 27 230 80 517 44 713 -88 29 -20 56 -32 59 -28 4
4 19 68 34 142 137 665 443 1670 509 1670 7 0 67 -18 132 -40 331 -112 757
-225 1050 -279 225 -42 348 -54 520 -54 188 1 288 19 371 68 55 32 94 96 94
153 0 116 -130 302 -340 485 -55 48 -51 50 25 17 57 -25 264 -113 530 -225
127 -53 319 -135 428 -181 108 -46 199 -84 201 -84 21 0 135 -64 139 -77 2
-10 21 -74 41 -142 112 -380 198 -940 252 -1634 4 -48 8 -86 10 -84 19 19 120
726 154 1077 46 472 26 850 -64 1215 -72 290 -175 545 -314 774 -320 528 -817
876 -1431 1001 -189 38 -338 51 -656 54 -170 2 -328 2 -350 0z"/>
<path d="M20048 17478 l-3 -163 -162 -3 -163 -2 0 -145 0 -145 165 0 165 0 0
-160 0 -160 145 0 145 0 0 160 0 160 160 0 160 0 0 145 0 145 -160 0 -160 0 0
165 0 165 -145 0 -145 0 -2 -162z"/>
<path d="M11365 15949 c-192 -70 -354 -130 -360 -132 -5 -2 0 -15 13 -29 12
-13 22 -28 22 -33 0 -5 -123 -132 -272 -282 -150 -150 -274 -277 -276 -282 -1
-4 93 -103 210 -220 266 -264 285 -276 453 -276 102 0 114 2 169 30 105 53
193 161 214 262 8 37 9 38 62 46 130 18 247 106 304 227 25 54 31 81 34 155
l4 90 -95 260 c-117 321 -115 315 -124 314 -5 0 -165 -59 -358 -130z"/>
<path d="M14966 14744 c-92 -18 -158 -40 -237 -80 -75 -37 -224 -146 -239
-174 -24 -45 0 -90 49 -90 18 0 50 18 97 56 84 67 224 138 319 160 142 33 319
16 456 -43 69 -30 103 -21 114 28 9 42 -11 61 -105 100 -136 55 -310 72 -454
43z"/>
<path d="M17024 14749 c-77 -10 -134 -24 -204 -51 -114 -45 -146 -79 -121
-127 19 -34 55 -36 121 -7 266 120 556 75 804 -123 44 -35 62 -38 94 -15 29
20 29 66 0 95 -123 117 -324 208 -507 229 -95 11 -100 11 -187 -1z"/>
<path d="M3935 14683 c-11 -2 -30 -12 -41 -21 -12 -9 -291 -465 -619 -1012
-329 -547 -710 -1181 -847 -1409 -268 -446 -273 -457 -228 -514 11 -14 80 -61
153 -105 72 -44 568 -342 1101 -662 1035 -622 1006 -607 1067 -566 49 31 231
357 358 641 67 149 135 296 152 328 l30 58 -15 69 c-20 88 -21 268 -2 315 21
49 51 62 85 38 34 -26 57 -75 84 -183 12 -50 24 -90 27 -90 3 0 229 374 504
831 533 888 523 869 483 930 -9 13 -137 97 -284 185 -147 89 -636 383 -1087
654 -761 457 -872 522 -893 519 -4 -1 -17 -4 -28 -6z m985 -867 c0 -3 -4 -8
-10 -11 -5 -3 -10 -1 -10 4 0 6 5 11 10 11 6 0 10 -2 10 -4z m64 -23 c19 -9
32 -21 29 -26 -4 -6 0 -8 9 -4 23 8 41 -36 26 -68 -8 -19 -17 -24 -39 -21 -32
4 -40 -9 -11 -18 9 -3 6 -4 -8 -2 -19 2 -26 -2 -26 -16 0 -10 6 -18 13 -18 19
0 16 -18 -8 -52 -16 -22 -27 -28 -43 -24 -12 3 -28 1 -36 -4 -10 -7 -11 -10
-2 -10 6 0 12 -9 12 -20 0 -11 -4 -20 -10 -20 -5 0 -9 -12 -9 -27 1 -23 2 -24
6 -6 2 12 11 27 19 33 18 16 18 6 -1 -30 -16 -31 -62 -51 -74 -32 -4 6 -11 5
-19 -4 -10 -12 -10 -14 2 -14 19 0 39 -36 30 -53 -21 -36 -50 -57 -80 -57 -17
0 -34 -6 -37 -13 -3 -8 1 -14 9 -14 7 0 11 4 8 9 -7 10 7 10 25 -1 11 -7 11
-15 2 -44 -13 -39 -31 -50 -67 -41 -18 5 -24 3 -22 -7 2 -8 8 -17 13 -21 6 -5
4 -12 -5 -18 -13 -8 -12 -10 5 -11 l20 0 -20 -9 c-11 -5 -14 -9 -7 -9 10 -1
10 -5 0 -21 -8 -12 -20 -19 -30 -16 -27 6 -42 -18 -26 -43 10 -17 9 -24 -8
-47 -18 -25 -73 -56 -59 -34 3 6 -1 7 -9 4 -20 -8 -20 -21 -1 -40 13 -13 13
-19 0 -43 -18 -35 -45 -48 -57 -26 -5 8 -13 13 -18 10 -5 -3 -18 0 -29 7 -27
16 -40 2 -15 -16 10 -8 27 -20 37 -28 18 -14 59 -146 50 -162 -4 -5 -1 -6 7
-1 8 5 11 3 8 -6 -3 -8 -11 -13 -17 -11 -7 1 -10 -2 -6 -7 3 -6 12 -8 20 -5
10 4 12 0 8 -17 -5 -16 -3 -20 6 -14 10 6 11 2 6 -15 -5 -15 -4 -20 4 -16 6 4
11 3 11 -3 0 -16 62 -104 87 -124 13 -10 20 -24 16 -30 -4 -6 0 -8 10 -4 10 3
17 2 17 -3 0 -6 6 -10 14 -10 7 0 19 -7 26 -15 7 -9 29 -15 54 -15 22 0 48 -4
56 -10 10 -6 -1 -8 -32 -6 l-46 3 14 -41 c9 -24 12 -56 9 -76 -6 -36 3 -52 50
-85 20 -14 20 -14 -2 -8 -12 3 -27 11 -33 18 -6 8 -17 12 -24 9 -9 -3 -11 9
-6 49 7 65 -6 100 -52 143 -37 36 -81 55 -73 32 3 -8 2 -25 -3 -39 -8 -20 -10
-14 -10 28 0 34 4 50 11 46 6 -3 7 -1 3 5 -4 6 -13 9 -21 5 -9 -3 -15 1 -15
10 0 9 -5 19 -12 23 -7 5 -8 2 -3 -7 4 -8 -7 0 -25 16 -45 42 -112 143 -104
157 4 6 3 8 -3 5 -6 -4 -18 11 -28 33 -17 39 -18 39 -30 17 -22 -41 -40 -67
-47 -67 -16 0 -7 22 19 46 21 19 24 27 14 37 -10 9 -11 8 -6 -5 5 -12 2 -18
-8 -18 -8 0 -17 3 -20 8 -2 4 -2 2 -1 -5 4 -18 -22 -64 -31 -55 -4 4 1 -6 11
-23 14 -23 15 -27 3 -18 -16 13 -29 8 -29 -11 0 -6 5 -4 10 4 19 29 11 -16
-12 -67 -12 -26 -20 -55 -19 -63 2 -13 1 -13 -8 0 -6 9 -11 10 -11 3 0 -6 -3
-20 -6 -30 -5 -15 -4 -16 6 -3 9 12 10 10 4 -10 -3 -14 -11 -30 -16 -37 -5 -7
-7 -17 -3 -23 3 -5 1 -10 -6 -10 -8 0 -10 -11 -6 -35 3 -19 2 -35 -2 -35 -5 0
-8 -70 -7 -155 1 -85 -2 -155 -6 -155 -5 0 -8 -8 -8 -17 0 -14 2 -15 9 -4 7
11 10 11 17 -1 13 -22 59 -49 69 -41 4 5 5 2 0 -6 -6 -10 -2 -11 15 -6 17 5
20 4 15 -5 -6 -10 -1 -11 21 -6 24 5 26 4 11 -5 -14 -8 -30 -6 -67 7 -56 20
-68 15 -52 -21 6 -14 9 -32 6 -40 -4 -8 -10 -39 -14 -68 l-8 -52 -2 75 c-2 41
-3 81 -3 87 1 7 -3 11 -7 8 -8 -5 -27 60 -38 130 -4 22 -6 104 -5 183 1 119 5
150 21 183 11 21 16 36 12 34 -4 -3 -2 12 6 33 7 20 13 48 14 61 0 19 -12 10
-71 -53 -42 -45 -77 -75 -85 -72 -8 3 -13 0 -11 -7 1 -7 -6 -11 -15 -11 -10 1
-16 -2 -13 -6 3 -4 -10 -19 -28 -33 -25 -19 -37 -23 -51 -15 -19 11 -71 -16
-61 -32 6 -10 -23 -28 -52 -33 -10 -1 -22 -5 -28 -9 -5 -3 -25 -9 -44 -13 -27
-6 -32 -4 -25 6 6 11 5 12 -7 2 -22 -18 -95 -28 -103 -14 -8 13 -53 15 -58 3
-5 -12 -73 -52 -89 -52 -8 0 6 10 30 23 23 13 43 27 42 32 0 13 -112 47 -158
49 -24 0 -43 4 -43 7 0 4 -21 5 -47 3 -43 -4 -45 -3 -18 6 17 6 50 8 75 4 25
-3 60 -7 78 -9 18 -2 37 -7 41 -10 5 -2 11 2 15 10 3 8 0 15 -6 15 -6 0 -9 3
-5 6 3 3 -2 13 -12 23 -9 9 -24 26 -32 37 -8 10 -37 35 -65 54 -29 20 -49 40
-47 47 7 17 23 17 23 0 0 -12 51 -57 65 -57 11 0 74 -68 68 -74 -4 -3 -2 -6 4
-6 6 0 16 -13 23 -30 7 -16 25 -36 41 -44 17 -8 26 -10 23 -4 -5 8 -1 9 10 5
10 -4 29 -7 42 -7 14 0 22 -4 19 -10 -8 -12 -10 -13 48 5 27 8 78 30 114 49
36 20 70 33 75 30 5 -3 7 -1 6 4 -3 11 66 62 84 62 6 0 9 3 5 6 -3 3 8 18 25
33 18 14 33 24 35 21 1 -3 10 6 20 19 16 23 17 23 25 5 7 -15 8 -13 5 8 -5 35
38 82 53 58 5 -8 12 -11 17 -6 4 4 0 12 -10 18 -18 9 -18 11 4 34 12 13 27 21
32 17 7 -4 8 1 3 12 -5 15 -4 16 8 6 12 -10 14 -9 9 7 -2 10 8 41 24 68 36 60
45 84 33 84 -5 0 -12 -4 -15 -10 -3 -5 -16 -10 -28 -9 l-22 0 23 9 c35 14 26
17 -25 9 -57 -9 -141 0 -121 12 8 6 2 8 -17 7 -16 -1 -59 4 -95 10 -111 20
-132 17 -159 -24 -18 -25 -26 -31 -32 -22 -6 9 -9 8 -10 -7 -1 -11 -1 -23 0
-27 0 -5 -3 -8 -8 -8 -5 0 -11 -10 -15 -22 -5 -23 -16 -39 -57 -88 -25 -30
-15 -7 16 35 12 17 32 56 44 87 16 39 27 55 37 51 9 -3 14 2 14 16 0 25 -18
27 -85 6 -27 -8 -53 -11 -59 -8 -6 3 -8 3 -4 -2 9 -9 -93 -66 -105 -58 -4 2
-14 -3 -23 -12 -9 -9 -19 -13 -23 -10 -9 10 31 36 46 31 7 -3 15 -1 18 4 4 6
0 10 -7 10 -7 0 5 12 27 25 38 24 39 25 10 19 -19 -3 -37 0 -50 10 -31 22 -10
31 46 18 42 -10 55 -9 81 4 17 9 46 16 64 16 19 0 34 4 34 9 0 5 12 9 28 9 21
0 24 -2 12 -10 -9 -6 -10 -10 -3 -10 6 0 15 5 18 10 3 6 14 10 23 10 15 0 15
-2 2 -10 -11 -7 -2 -8 28 -4 37 6 42 4 36 -10 -3 -9 -1 -16 5 -16 6 0 11 5 11
11 0 6 9 9 20 6 26 -7 25 6 -6 73 l-25 56 -67 2 c-60 3 -152 31 -152 47 0 3
13 -1 30 -10 16 -8 51 -18 77 -21 27 -3 61 -7 77 -9 26 -5 28 -3 22 20 -9 34
0 32 19 -5 18 -35 40 -39 48 -8 4 12 9 19 13 15 4 -3 -1 -18 -10 -31 -22 -35
-20 -52 11 -92 22 -29 24 -37 13 -44 -8 -5 -11 -12 -7 -17 5 -4 11 -2 15 4 5
7 26 8 62 4 59 -8 116 -7 140 2 8 3 29 8 45 12 17 4 51 15 76 26 40 17 46 24
46 50 0 16 -4 25 -7 18 -6 -8 -10 -8 -16 2 -4 7 -3 14 4 17 7 2 12 12 12 21 0
19 38 41 73 41 l21 0 -22 16 c-21 14 -31 44 -14 44 4 0 12 10 17 23 7 15 20
23 45 25 19 2 39 7 44 12 4 4 0 7 -9 7 -10 -1 -20 4 -23 12 -3 9 0 11 9 7 8
-4 5 0 -5 8 -11 9 -14 16 -7 16 7 0 9 5 5 12 -5 8 -2 9 11 4 14 -5 16 -4 7 7
-12 14 -7 27 10 27 5 0 6 -4 3 -10 -3 -5 -1 -10 4 -10 6 0 11 5 11 10 0 6 8
10 19 10 10 0 24 7 31 15 11 13 10 14 -3 9 -23 -9 -39 27 -24 56 7 13 19 26
27 28 13 5 13 3 1 -11 -9 -11 -10 -17 -2 -17 6 0 12 5 12 10 1 6 2 15 3 22 0
7 12 15 25 18 21 5 22 7 7 19 -9 7 -16 19 -16 26 0 20 40 65 58 65 15 -1 15
-3 -2 -15 -11 -8 -17 -18 -13 -21 8 -8 46 36 47 54 0 6 -4 12 -10 12 -5 0 -10
9 -10 20 0 14 5 18 16 13 13 -5 13 -8 2 -15 -10 -8 -10 -9 2 -5 8 2 14 10 13
16 -2 6 9 12 25 12 17 1 20 3 9 6 -9 2 -15 9 -11 14 3 5 10 7 15 4 5 -4 9 -4
9 -1 0 16 -22 13 -39 -6 -16 -16 -21 -18 -21 -6 0 18 44 40 65 32 19 -8 19 3
1 21 -9 10 -11 24 -7 47 6 27 11 33 32 30 16 -1 20 1 11 7 -11 7 -11 9 2 14
11 4 16 1 16 -10 0 -25 12 -7 15 22 2 14 -1 27 -6 30 -4 3 -3 17 3 30 6 13 15
22 19 19 5 -3 17 0 26 5 24 14 27 14 67 -6z m639 -335 c25 -13 63 -59 59 -71
-1 -4 7 -3 18 3 15 8 25 8 34 1 7 -6 35 -23 62 -37 60 -32 62 -33 45 -43 -24
-15 -3 -32 23 -20 26 12 71 -4 61 -21 -4 -6 2 -7 12 -3 16 6 16 4 -2 -17 l-20
-24 25 15 c22 14 28 14 46 2 14 -9 20 -21 17 -33 -3 -11 -9 -17 -14 -14 -5 3
-7 -1 -4 -8 3 -7 1 -20 -5 -28 -8 -13 -11 -12 -24 5 -16 21 -18 18 -21 -27 -1
-15 1 -25 6 -23 4 3 5 15 1 27 -3 14 -2 19 6 14 18 -11 14 -31 -11 -69 -14
-20 -29 -32 -37 -29 -13 5 -13 3 -1 -11 20 -25 4 -20 -36 10 -19 15 -43 28
-51 30 -9 1 -22 10 -30 20 -7 10 -16 18 -20 18 -4 0 -6 3 -5 7 2 4 -5 4 -15 1
-15 -6 -14 -3 3 17 l20 24 -25 -15 c-23 -15 -27 -15 -65 10 -22 14 -45 32 -51
40 -6 8 -16 11 -22 7 -6 -3 -14 -1 -18 5 -5 8 -3 9 6 4 9 -6 11 -4 6 4 -5 7
-15 10 -25 7 -13 -5 -13 -4 2 8 16 12 16 14 2 20 -9 3 -14 2 -11 -3 3 -5 -1
-12 -10 -15 -8 -3 -12 -2 -9 4 3 6 0 10 -7 10 -9 0 -9 3 2 10 11 8 7 9 -14 4
-23 -5 -27 -4 -21 6 6 10 4 12 -8 7 -11 -4 -14 -2 -10 9 3 7 9 14 13 14 4 0
10 10 14 23 3 12 15 32 26 45 11 12 17 22 13 22 -4 0 1 7 12 16 11 8 19 18 19
22 -2 10 7 32 13 32 2 0 14 -5 26 -12z m83 -55 c-7 -7 -26 7 -26 19 0 6 6 6
15 -2 9 -7 13 -15 11 -17z m164 -92 c0 -5 -7 -12 -16 -15 -14 -5 -15 -4 -4 9
14 17 20 19 20 6z m-2372 -458 c15 -3 19 -8 12 -13 -15 -9 -61 0 -54 11 6 11
11 11 42 2z m48 -22 c-4 -6 -15 -11 -24 -10 -11 0 -12 3 -4 6 6 2 12 12 12 21
0 12 3 13 11 5 6 -6 8 -16 5 -22z m1289 -201 c3 -5 -3 -10 -15 -10 -12 0 -18
5 -15 10 3 6 10 10 15 10 5 0 12 -4 15 -10z m-60 -10 c-28 -12 -37 -12 -30 0
3 6 16 10 28 9 21 0 21 -1 2 -9z m-45 -14 c0 -8 -107 -66 -121 -66 -8 0 13 16
46 34 58 34 75 41 75 32z m-1135 -37 c-22 -4 -53 -8 -70 -7 -29 1 -29 1 5 8
19 4 51 7 70 8 l35 0 -40 -9z m77 -11 c-9 -9 -15 -9 -24 0 -9 9 -7 12 12 12
19 0 21 -3 12 -12z m-331 -45 l34 -36 -37 29 c-21 16 -38 32 -38 37 0 12 5 9
41 -30z m309 22 c0 -2 -10 -9 -22 -15 -22 -11 -22 -10 -4 4 21 17 26 19 26 11z
m-265 -155 c-16 -4 -43 -8 -60 -8 -29 1 -29 1 5 8 19 4 46 7 60 8 22 0 22 -1
-5 -8z m-245 -39 c0 -4 -6 -8 -14 -8 -8 0 -12 6 -9 14 5 13 23 9 23 -6z m1484
-65 c-3 -15 -8 -25 -11 -23 -2 3 -1 17 3 31 3 15 8 25 11 23 2 -3 1 -17 -3
-31z m-649 14 c6 -10 -7 -14 -34 -11 -8 2 -10 -2 -5 -10 5 -8 3 -10 -6 -4 -10
6 -9 11 5 22 22 16 32 16 40 3z m-710 -10 c19 -8 19 -9 -2 -9 -12 -1 -25 4
-28 9 -7 12 2 12 30 0z m-38 -16 c-3 -3 -12 -4 -19 -1 -8 3 -5 6 6 6 11 1 17
-2 13 -5z m-40 -10 c-3 -3 -12 -4 -19 -1 -8 3 -5 6 6 6 11 1 17 -2 13 -5z
m174 -27 c-10 -9 -11 -8 -5 6 3 10 9 15 12 12 3 -3 0 -11 -7 -18z m126 -73
c-3 -3 -12 -4 -19 -1 -8 3 -5 6 6 6 11 1 17 -2 13 -5z m1003 -4 c-8 -5 -31 -9
-50 -9 -32 1 -33 2 -10 9 14 4 36 8 50 9 20 1 22 -1 10 -9z m281 -21 c-5 -13
-10 -19 -10 -12 -1 15 10 45 15 40 3 -2 0 -15 -5 -28z m-91 -179 c-8 -5 -22
-9 -30 -9 -10 0 -8 3 5 9 27 12 43 12 25 0z m-160 -20 c-13 -9 -13 -10 0 -11
18 -1 -48 -27 -70 -28 -8 0 -1 6 16 13 18 8 35 19 38 25 4 6 13 11 19 11 7 0
6 -4 -3 -10z m77 3 c-9 -2 -15 -8 -12 -13 3 -4 -5 -6 -17 -2 -21 5 -21 6 -2
13 10 4 26 7 34 7 10 0 9 -2 -3 -5z m-155 -65 c19 -19 19 -21 2 -13 -10 4 -27
7 -36 7 -14 -1 -15 2 -5 13 15 18 13 19 39 -7z m-74 -108 c24 -12 42 -23 39
-26 -7 -8 -120 60 -125 76 -3 10 3 8 19 -6 13 -12 44 -32 67 -44z m92 -65 c13
-14 18 -25 12 -25 -7 0 -12 -9 -12 -19 0 -28 -10 -51 -23 -51 -7 0 -7 4 1 12
17 17 15 74 -4 92 -8 9 -11 16 -6 16 4 0 19 -11 32 -25z m75 -95 c3 -5 1 -10
-4 -10 -6 0 -11 5 -11 10 0 6 2 10 4 10 3 0 8 -4 11 -10z m135 -6 c0 -2 -26
-3 -57 -3 -44 1 -51 3 -28 8 29 6 85 3 85 -5z"/>
<path d="M4930 13791 c0 -15 32 -23 44 -11 8 8 6 9 -8 4 -13 -5 -17 -4 -12 4
4 7 1 12 -8 12 -9 0 -16 -4 -16 -9z"/>
<path d="M4887 13773 c-3 -5 5 -8 18 -8 13 0 21 3 18 8 -2 4 -10 7 -18 7 -8 0
-16 -3 -18 -7z"/>
<path d="M4956 13595 c-16 -12 -17 -15 -4 -15 9 0 18 7 22 15 7 18 6 18 -18 0z"/>
<path d="M4890 13580 c8 -5 20 -10 25 -10 6 0 3 5 -5 10 -8 5 -19 10 -25 10
-5 0 -3 -5 5 -10z"/>
<path d="M4930 13560 c-8 -5 -10 -10 -5 -10 6 0 17 5 25 10 8 5 11 10 5 10 -5
0 -17 -5 -25 -10z"/>
<path d="M4760 13500 c0 -5 4 -10 9 -10 6 0 13 5 16 10 3 6 -1 10 -9 10 -9 0
-16 -4 -16 -10z"/>
<path d="M4755 13470 c-3 -5 -1 -10 4 -10 6 0 11 5 11 10 0 6 -2 10 -4 10 -3
0 -8 -4 -11 -10z"/>
<path d="M4671 13433 c-1 -6 -4 -20 -7 -30 -5 -17 -5 -17 6 0 6 10 9 23 6 30
-3 9 -5 9 -5 0z"/>
<path d="M4687 13396 c-4 -10 -1 -13 9 -9 7 3 14 -1 14 -8 0 -7 2 -10 5 -7 7
7 -5 38 -15 38 -4 0 -10 -7 -13 -14z"/>
<path d="M4810 13396 c0 -4 7 -14 15 -22 8 -9 15 -11 15 -6 0 5 -7 15 -15 22
-8 7 -15 9 -15 6z"/>
<path d="M4733 13333 c9 -2 23 -2 30 0 6 3 -1 5 -18 5 -16 0 -22 -2 -12 -5z"/>
<path d="M4795 13330 c-3 -5 -1 -10 4 -10 6 0 11 5 11 10 0 6 -2 10 -4 10 -3
0 -8 -4 -11 -10z"/>
<path d="M4733 13313 c9 -2 23 -2 30 0 6 3 -1 5 -18 5 -16 0 -22 -2 -12 -5z"/>
<path d="M4740 13234 c0 -16 -2 -17 -10 -4 -5 8 -10 11 -10 5 0 -5 4 -16 9
-24 7 -11 10 -9 16 8 4 13 4 25 1 28 -3 4 -6 -2 -6 -13z"/>
<path d="M4663 13129 c3 -9 0 -22 -6 -28 -8 -8 -8 -11 0 -11 19 0 25 18 13 37
-9 15 -11 15 -7 2z"/>
<path d="M4570 13008 c-12 -22 -12 -22 6 -6 10 10 15 20 12 24 -4 3 -12 -5
-18 -18z"/>
<path d="M4592 12990 c-7 -11 -9 -20 -4 -20 4 0 13 9 20 20 7 11 9 20 4 20 -4
0 -13 -9 -20 -20z"/>
<path d="M4328 12833 c7 -3 16 -2 19 1 4 3 -2 6 -13 5 -11 0 -14 -3 -6 -6z"/>
<path d="M3773 12823 c9 -2 23 -2 30 0 6 3 -1 5 -18 5 -16 0 -22 -2 -12 -5z"/>
<path d="M4063 12803 c9 -2 25 -2 35 0 9 3 1 5 -18 5 -19 0 -27 -2 -17 -5z"/>
<path d="M4450 12806 c0 -2 9 -6 20 -9 11 -3 18 -1 14 4 -5 9 -34 13 -34 5z"/>
<path d="M4210 12793 c-49 -6 -58 -19 -10 -15 22 2 43 8 46 13 3 5 4 8 2 7 -2
0 -19 -3 -38 -5z"/>
<path d="M3598 12753 c7 -3 16 -2 19 1 4 3 -2 6 -13 5 -11 0 -14 -3 -6 -6z"/>
<path d="M4490 12741 c0 -11 4 -22 9 -25 4 -3 6 6 3 19 -5 30 -12 33 -12 6z"/>
<path d="M4295 12731 c-3 -5 -1 -12 4 -15 5 -3 11 1 15 9 6 16 -9 21 -19 6z"/>
<path d="M4448 12696 c4 -15 7 -17 10 -6 3 8 10 18 16 22 6 4 1 6 -10 6 -16
-2 -20 -7 -16 -22z"/>
<path d="M4280 12703 c0 -4 5 -15 10 -23 8 -13 10 -13 10 2 0 9 -4 20 -10 23
-5 3 -10 3 -10 -2z"/>
<path d="M4326 12685 c-3 -8 -1 -15 3 -15 5 0 11 7 15 15 3 8 1 15 -3 15 -5 0
-11 -7 -15 -15z"/>
<path d="M4256 12665 c-9 -26 -7 -32 5 -12 6 10 9 21 6 23 -2 3 -7 -2 -11 -11z"/>
<path d="M4507 12603 c9 -24 20 -43 24 -43 5 0 15 -12 23 -27 8 -16 15 -23 15
-18 1 6 -12 29 -27 51 -15 23 -32 50 -39 60 -7 11 -5 0 4 -23z"/>
<path d="M4196 12582 c-4 -7 -2 -12 6 -12 9 0 9 -3 -2 -10 -9 -6 -10 -10 -3
-10 6 0 15 5 18 10 5 8 11 7 21 -1 12 -10 13 -9 8 5 -4 10 -12 15 -20 12 -7
-3 -14 0 -17 7 -2 8 -5 8 -11 -1z"/>
<path d="M4290 12520 c0 -11 2 -20 4 -20 2 0 6 9 9 20 3 11 1 20 -4 20 -5 0
-9 -9 -9 -20z"/>
<path d="M4194 12506 c-9 -15 -14 -29 -11 -33 4 -3 10 3 14 13 3 10 11 22 17
26 6 4 8 10 4 13 -4 4 -14 -5 -24 -19z"/>
<path d="M4260 12494 c0 -14 4 -23 9 -20 5 3 7 15 4 26 -7 28 -13 25 -13 -6z"/>
<path d="M4130 12500 c-9 -6 -10 -10 -3 -10 6 0 15 5 18 10 8 12 4 12 -15 0z"/>
<path d="M4133 12453 c-14 -30 -13 -35 6 -24 7 5 11 18 9 30 -3 19 -4 19 -15
-6z"/>
<path d="M4046 12415 c-11 -8 -15 -15 -9 -15 7 0 15 5 18 10 4 6 11 7 17 4 7
-4 8 -2 4 4 -9 14 -7 15 -30 -3z"/>
<path d="M4090 12405 c0 -8 2 -15 4 -15 2 0 6 7 10 15 3 8 1 15 -4 15 -6 0
-10 -7 -10 -15z"/>
<path d="M3960 12345 c-19 -14 -30 -25 -26 -25 4 0 19 9 33 20 14 11 30 17 36
13 6 -3 7 -1 3 5 -9 15 -7 16 -46 -13z"/>
<path d="M4020 12340 c0 -5 5 -10 11 -10 5 0 7 5 4 10 -3 6 -8 10 -11 10 -2 0
-4 -4 -4 -10z"/>
<path d="M3982 12331 c-10 -6 -10 -10 2 -20 10 -9 16 -9 21 -1 10 16 -7 31
-23 21z"/>
<path d="M4222 12280 c0 -14 2 -19 5 -12 2 6 2 18 0 25 -3 6 -5 1 -5 -13z"/>
<path d="M3875 12260 c-3 -5 -2 -10 4 -10 5 0 13 5 16 10 3 6 2 10 -4 10 -5 0
-13 -4 -16 -10z"/>
<path d="M4221 12224 c0 -11 3 -14 6 -6 3 7 2 16 -1 19 -3 4 -6 -2 -5 -13z"/>
<path d="M4201 12094 c0 -11 3 -14 6 -6 3 7 2 16 -1 19 -3 4 -6 -2 -5 -13z"/>
<path d="M4235 11921 c-3 -5 -2 -12 3 -15 5 -3 9 1 9 9 0 17 -3 19 -12 6z"/>
<path d="M5592 13447 c-8 -9 -8 -17 0 -27 8 -13 9 -12 5 1 -3 9 0 22 6 28 6 6
8 11 5 11 -3 0 -10 -6 -16 -13z"/>
<path d="M5577 13383 c4 -10 2 -14 -5 -9 -6 3 -13 3 -16 -2 -2 -4 6 -8 19 -8
20 0 22 3 14 18 -12 23 -21 24 -12 1z"/>
<path d="M5700 13376 c0 -2 7 -7 16 -10 8 -3 12 -2 9 4 -6 10 -25 14 -25 6z"/>
<path d="M5780 13330 c0 -5 5 -10 11 -10 5 0 7 5 4 10 -3 6 -8 10 -11 10 -2 0
-4 -4 -4 -10z"/>
<path d="M5770 13290 c20 -13 33 -13 25 0 -3 6 -14 10 -23 10 -15 0 -15 -2 -2
-10z"/>
<path d="M5950 13230 c-8 -5 -10 -10 -5 -10 6 0 17 5 25 10 8 5 11 10 5 10 -5
0 -17 -5 -25 -10z"/>
<path d="M5651 13197 c2 -1 13 -9 24 -17 19 -14 19 -14 6 3 -7 9 -18 17 -24
17 -6 0 -8 -1 -6 -3z"/>
<path d="M5710 13170 c-8 -5 -10 -10 -5 -10 6 0 17 5 25 10 8 5 11 10 5 10 -5
0 -17 -5 -25 -10z"/>
<path d="M5790 13106 c0 -2 7 -7 16 -10 8 -3 12 -2 9 4 -6 10 -25 14 -25 6z"/>
<path d="M17393 13861 c-153 -111 -403 -126 -585 -35 -26 13 -54 24 -62 24
-20 0 -38 -34 -29 -56 8 -20 127 -76 203 -95 77 -19 240 -17 320 4 75 20 190
75 239 116 28 23 33 32 27 54 -9 39 -49 34 -113 -12z"/>
<path d="M14740 13815 c-22 -26 -5 -48 66 -87 112 -60 213 -82 359 -76 130 6
223 30 318 83 43 25 48 30 45 59 -4 43 -24 43 -112 1 -181 -87 -381 -87 -561
1 -78 38 -97 41 -115 19z"/>
<path d="M16150 13745 c-9 -11 -13 -75 -15 -228 -2 -207 -12 -301 -45 -394
-17 -47 -9 -85 21 -102 23 -13 28 -12 52 5 27 20 50 83 51 140 1 18 4 30 7 28
8 -5 27 138 35 261 7 129 -9 272 -33 291 -24 18 -58 17 -73 -1z"/>
<path d="M19941 13440 c-62 -13 -120 -51 -183 -118 -138 -150 -163 -329 -71
-524 l36 -78 162 0 162 0 11 38 c6 20 34 132 63 247 28 116 55 214 59 218 4 4
56 -188 116 -427 60 -239 111 -432 115 -428 3 4 12 41 19 82 6 41 37 212 67
380 l54 305 -73 70 c-186 178 -387 266 -537 235z"/>
<path d="M8533 13400 c-138 -41 -259 -129 -323 -236 -34 -58 -36 -59 -84 -62
-183 -12 -340 -183 -381 -416 -8 -49 -15 -114 -15 -145 0 -87 36 -304 65 -388
3 -9 21 -5 61 14 75 34 167 36 238 4 27 -11 51 -21 55 -21 19 0 84 219 102
347 11 77 16 93 35 103 29 16 58 56 73 103 13 38 20 44 37 28 23 -23 157 -80
244 -104 182 -49 458 -61 597 -24 l51 14 11 -41 c33 -124 67 -441 56 -525 -9
-71 11 -29 34 71 27 114 45 332 37 448 l-6 95 29 27 c48 46 66 94 65 178 0 88
-16 123 -95 213 -112 128 -356 268 -553 317 -102 26 -246 26 -333 0z"/>
<path d="M21079 13385 c-133 -44 -399 -224 -399 -270 0 -24 108 -666 112 -670
2 -2 57 126 122 284 65 158 121 293 125 300 4 6 35 -57 71 -149 l63 -160 167
0 167 0 33 73 c47 106 65 204 52 285 -21 123 -102 241 -204 297 -45 25 -66 30
-143 32 -75 3 -103 -1 -166 -22z"/>
<path d="M20586 13079 c-2 -8 -34 -183 -70 -389 -80 -451 -98 -552 -101 -548
-1 2 -53 206 -116 455 -63 249 -117 449 -120 445 -4 -4 -26 -87 -50 -184 l-43
-178 -163 0 c-90 0 -163 -4 -163 -9 0 -16 99 -137 176 -216 173 -174 377 -334
604 -473 l55 -34 50 28 c139 77 393 258 530 379 132 116 297 296 284 310 -3 2
-71 5 -152 6 -107 1 -151 5 -161 14 -7 7 -33 63 -57 124 -30 75 -46 105 -52
96 -4 -8 -37 -86 -73 -172 -177 -428 -189 -454 -196 -431 -3 13 -34 195 -69
405 -46 283 -65 380 -74 373 -7 -6 -15 -6 -23 2 -8 8 -12 8 -16 -3z"/>
<path d="M15338 12899 c-11 -6 -18 -22 -18 -39 0 -87 282 -250 536 -311 96
-23 246 -36 288 -25 36 9 52 50 32 81 -13 19 -26 23 -112 29 -237 16 -483 109
-621 233 -48 43 -74 51 -105 32z"/>
<path d="M9089 12380 c-38 -11 -79 -40 -79 -56 0 -19 9 -18 65 7 56 25 101 20
144 -16 32 -28 61 -33 61 -11 0 29 -103 88 -149 85 -9 0 -28 -4 -42 -9z"/>
<path d="M8467 12359 c-72 -17 -165 -78 -152 -100 10 -15 24 -11 60 17 67 51
151 63 228 32 31 -12 51 -1 38 20 -4 7 -32 19 -62 27 -60 16 -59 16 -112 4z"/>
<path d="M9108 12105 c-18 -41 0 -80 37 -80 23 0 32 6 39 27 14 39 -6 78 -39
78 -18 0 -29 -8 -37 -25z"/>
<path d="M8596 12074 c-19 -18 -21 -75 -4 -92 19 -19 46 -14 63 12 19 29 11
72 -15 86 -24 13 -26 13 -44 -6z"/>
<path d="M8940 12080 c-11 -7 -11 -18 -1 -63 6 -30 21 -65 31 -77 21 -24 18
-38 -19 -77 -24 -25 -27 -43 -8 -43 26 0 95 94 77 105 -20 12 -50 84 -50 119
0 38 -9 49 -30 36z"/>
<path d="M8616 11731 c-16 -26 143 -103 226 -109 54 -4 58 -3 58 17 0 18 -6
21 -48 21 -56 0 -131 23 -184 57 -42 26 -45 27 -52 14z"/>
<path d="M21403 11398 c-36 -9 -63 -41 -63 -74 0 -12 10 -36 23 -55 l23 -34
-165 0 c-187 0 -238 -10 -284 -56 -27 -28 -29 -34 -24 -83 3 -32 19 -79 39
-117 18 -35 34 -67 36 -71 2 -5 -8 -8 -23 -8 -36 0 -78 -24 -94 -52 -10 -19
-10 -38 -1 -87 12 -70 68 -267 133 -476 l44 -140 -18 -40 c-10 -22 -19 -50
-19 -62 0 -13 -5 -23 -11 -23 -21 0 -59 -51 -59 -78 0 -32 7 -42 41 -64 15 -9
29 -29 32 -45 25 -138 152 -527 226 -692 108 -242 238 -409 356 -456 44 -18
60 -29 58 -42 -5 -53 -5 -90 1 -104 17 -39 -81 -477 -157 -709 -247 -747 -650
-1199 -1169 -1308 -246 -52 -498 -30 -787 70 -290 100 -645 309 -907 533 -32
28 -80 70 -108 94 -28 23 -110 102 -183 173 -92 91 -136 129 -147 125 -9 -4
-16 -11 -16 -17 0 -14 201 -216 312 -313 108 -95 362 -284 488 -364 505 -320
1001 -435 1407 -328 243 64 431 182 641 400 118 123 239 293 319 450 147 286
264 649 328 1017 15 84 33 167 41 185 8 17 14 45 14 61 0 34 22 62 49 62 10 0
51 16 91 36 245 123 469 519 605 1073 26 105 30 114 57 123 85 30 51 138 -44
138 -32 0 -40 -4 -48 -26 -13 -34 -13 -90 2 -113 20 -33 -32 -248 -121 -489
-44 -121 -141 -315 -202 -407 -67 -99 -178 -213 -244 -249 -67 -37 -157 -59
-205 -51 -165 28 -333 257 -473 645 -51 143 -112 349 -127 430 -6 30 -13 64
-16 75 -4 15 2 12 26 -13 86 -89 236 -84 315 10 42 49 55 90 55 167 0 77 4 81
85 81 81 0 85 -4 85 -79 1 -143 96 -241 235 -241 132 0 234 98 235 227 0 49 1
52 33 62 55 19 186 41 201 35 9 -3 28 3 44 15 32 23 98 40 153 41 l36 0 7 58
c44 364 59 708 35 795 -7 26 -21 45 -47 62 -107 70 -658 250 -932 304 -124 25
-178 30 -217 19z m112 -773 c160 0 365 4 456 8 l166 8 82 -242 c86 -252 87
-258 36 -259 -11 0 -54 -9 -95 -20 -69 -18 -76 -19 -85 -3 -49 81 -132 133
-211 133 -82 0 -123 -17 -179 -74 -40 -42 -55 -51 -70 -45 -28 11 -114 11
-152 0 -30 -9 -33 -7 -52 24 -31 52 -91 87 -164 94 l-62 6 40 27 c60 40 87 44
140 18 78 -38 103 -5 29 37 -48 28 -105 29 -159 4 -57 -26 -82 -57 -68 -81 10
-15 9 -19 -5 -23 -9 -3 -25 -8 -34 -12 -24 -10 -24 12 7 231 14 98 25 180 25
181 0 1 15 -1 33 -5 17 -4 163 -7 322 -7z m-187 -445 c61 -44 85 -98 80 -180
-3 -55 -9 -74 -32 -104 -40 -53 -82 -76 -139 -76 -86 0 -146 47 -147 115 0 22
-7 53 -15 69 -20 38 -19 58 5 109 45 95 165 127 248 67z m628 4 c67 -43 89
-86 89 -169 0 -63 -4 -77 -29 -114 -42 -60 -93 -84 -171 -79 -105 7 -175 72
-183 173 -5 67 10 113 51 155 43 44 81 59 147 60 44 0 65 -6 96 -26z"/>
<path d="M21875 10333 c-48 -10 -75 -26 -75 -44 0 -23 4 -23 73 -5 71 18 125
8 189 -37 75 -52 113 -26 42 28 -68 52 -156 74 -229 58z"/>
<path d="M21178 10049 c-21 -12 -25 -78 -6 -97 19 -19 45 -14 62 10 18 25 12
67 -12 86 -19 14 -22 14 -44 1z"/>
<path d="M21701 10020 c-19 -57 29 -106 67 -68 18 18 15 85 -4 92 -34 13 -52
6 -63 -24z"/>
<path d="M7966 11001 c-4 -5 3 -30 13 -55 38 -87 171 -492 201 -609 16 -66 35
-158 42 -205 15 -102 15 -243 4 -3649 l-8 -2381 -32 4 c-17 2 -206 15 -421 29
-214 14 -409 27 -432 30 l-41 4 -6 -62 c-3 -34 -8 -152 -11 -262 -5 -181 -15
-455 -45 -1285 -12 -329 -30 -810 -33 -864 -2 -33 -6 -41 -27 -47 -412 -123
-563 -189 -685 -301 -49 -45 -105 -116 -105 -133 0 -3 374 -5 830 -5 l830 0
-6 28 c-23 104 -50 198 -80 275 -39 103 -40 107 -16 107 16 0 21 20 41 153 49
336 261 1750 341 2277 27 179 109 719 181 1200 72 481 139 927 149 990 l18
115 1 -85 c0 -47 -6 -598 -14 -1225 -8 -627 -19 -1581 -25 -2120 -5 -539 -12
-1058 -16 -1152 -5 -154 -4 -173 10 -173 19 0 19 -1 5 -37 -52 -131 -78 -213
-103 -326 l-6 -27 835 0 836 0 -17 32 c-39 75 -152 171 -273 232 -70 36 -206
87 -308 116 -78 22 -82 25 -78 49 3 14 7 71 9 126 6 109 7 123 101 1479 36
511 63 932 60 934 -3 3 -144 -12 -314 -34 -170 -21 -313 -35 -317 -31 -4 3 7
366 25 804 44 1112 87 2339 105 2983 9 300 18 615 21 700 6 192 -11 1077 -25
1260 -19 235 -42 355 -167 863 -36 148 -69 265 -73 260 -5 -4 -15 -28 -23 -53
-8 -25 -65 -199 -127 -388 -62 -189 -116 -342 -121 -340 -7 3 -127 143 -274
322 -22 27 -45 54 -50 60 -6 6 -69 81 -140 166 -233 279 -226 272 -239 251z"/>
<path d="M21487 9974 c-4 -4 -7 -18 -7 -31 0 -28 -24 -79 -52 -110 l-20 -22
20 -34 c31 -48 60 -73 73 -60 7 7 1 21 -21 47 l-32 36 31 49 c18 28 32 64 34
86 2 35 -11 54 -26 39z"/>
<path d="M10727 9864 c-25 -217 -227 -2277 -223 -2281 6 -7 182 -28 481 -57
88 -9 223 -23 300 -31 77 -8 214 -22 305 -30 91 -8 250 -24 355 -35 104 -10
190 -18 191 -17 2 2 19 168 70 675 8 85 14 156 11 158 -2 2 -29 -1 -60 -7 -45
-9 -58 -16 -62 -33 -2 -12 -16 -140 -30 -286 -14 -145 -28 -266 -30 -268 -6
-6 -1374 131 -1386 139 -6 3 30 396 86 955 118 1170 104 1054 124 1054 9 0 75
-7 146 -15 190 -22 180 -23 199 30 11 35 12 47 3 50 -10 3 -170 19 -403 41
l-71 6 -6 -48z"/>
<path d="M11881 9773 c1 -15 4 -39 8 -53 7 -24 10 -25 175 -42 92 -9 170 -18
172 -21 3 -2 -11 -161 -31 -352 -19 -192 -33 -350 -32 -351 2 -2 30 14 64 34
72 43 65 16 93 322 11 118 25 264 31 324 6 59 8 110 6 112 -2 2 -91 13 -198
24 -107 11 -215 22 -241 25 -47 6 -48 5 -47 -22z"/>
<path d="M21830 9715 c-27 -33 -139 -85 -209 -97 -49 -8 -71 -16 -71 -26 0
-22 111 -8 179 23 65 30 140 85 141 103 0 17 -25 15 -40 -3z"/>
<path d="M18079 8141 c-96 -8 -141 -36 -179 -109 -33 -63 -26 -165 15 -222 17
-23 46 -51 66 -62 l36 -20 31 31 31 32 -20 33 c-25 44 -34 120 -20 173 12 42
60 102 111 135 14 9 21 17 15 16 -5 -1 -44 -4 -86 -7z"/>
<path d="M26233 7766 c-42 -14 -138 -69 -158 -90 -8 -10 -57 -51 -150 -128
-147 -123 -243 -212 -447 -418 -256 -258 -341 -353 -336 -376 2 -9 11 -22 21
-28 16 -10 29 0 95 74 139 155 515 524 667 654 213 181 239 202 292 230 40 20
122 21 150 1 29 -21 47 -78 39 -131 -5 -36 -46 -130 -85 -194 -15 -23 -102
-171 -121 -205 -23 -41 -98 -161 -171 -275 -61 -94 -61 -95 -50 -135 48 -162
53 -191 54 -335 2 -197 -21 -296 -110 -477 -47 -96 -50 -123 -11 -123 24 0 52
37 98 130 93 184 125 456 80 674 -11 53 -24 105 -30 116 -18 33 -11 54 48 145
92 141 158 247 177 284 9 19 21 39 27 45 14 17 73 121 120 216 36 71 43 96 46
155 2 54 -1 78 -16 105 -41 76 -142 114 -229 86z"/>
<path d="M21755 6088 c-50 -35 -206 -198 -200 -208 11 -17 31 -11 44 14 11 20
59 66 171 164 44 38 31 62 -15 30z"/>
<path d="M21763 5837 c-86 -86 -112 -128 -80 -127 6 1 28 21 47 46 19 25 61
67 93 95 54 47 72 79 45 79 -6 0 -54 -42 -105 -93z"/>
<path d="M21883 5742 c-61 -63 -107 -128 -98 -141 11 -19 22 -12 50 31 15 23
48 64 73 90 31 33 42 52 35 59 -7 7 -26 -6 -60 -39z"/>
<path d="M21964 5606 c6 -31 4 -34 -25 -40 -39 -8 -33 -32 7 -28 16 1 44 3 62
2 37 0 40 9 13 34 -11 10 -22 28 -25 42 -4 13 -14 24 -22 24 -13 0 -15 -7 -10
-34z"/>
<path d="M21280 5580 c-376 -5 -416 -8 -565 -32 -88 -15 -221 -36 -295 -48
-770 -123 -1404 -315 -1657 -502 -159 -117 -195 -201 -213 -501 -17 -290 28
-915 106 -1472 49 -348 100 -690 129 -858 3 -16 18 -108 35 -205 16 -97 47
-261 67 -365 l37 -187 56 -1 c30 0 75 -1 100 -1 l45 0 -40 -8 c-42 -9 -8 -8
192 6 83 5 92 4 96 -13 4 -16 5 -16 6 0 1 19 21 24 21 5 0 -10 3 -9 9 1 7 11
11 9 21 -8 6 -13 9 -29 6 -36 -3 -8 -1 -17 4 -20 10 -6 989 -7 999 -1 6 4 0
190 -18 551 -16 303 -91 1925 -91 1958 0 28 0 28 58 25 l57 -3 5 -155 c6 -172
14 -200 72 -243 43 -32 90 -47 145 -47 43 0 44 -1 39 -27 -3 -16 -8 -82 -11
-148 -6 -116 -37 -558 -111 -1590 -19 -275 -36 -559 -37 -632 -2 -127 -1 -132
23 -158 52 -56 120 -70 186 -39 62 29 74 65 90 252 7 92 14 170 14 175 0 4
189 7 420 7 l420 0 0 -167 c0 -140 3 -174 18 -203 53 -107 211 -107 264 0 15
29 18 63 18 203 l0 167 399 0 399 0 6 -43 c3 -23 9 -98 12 -166 6 -98 11 -132
28 -164 56 -105 207 -102 260 7 18 37 18 44 -14 514 -17 263 -34 518 -37 569
-3 50 -9 96 -13 103 -5 8 -45 8 -150 1 -78 -6 -144 -12 -145 -13 -1 -2 4 -82
11 -178 7 -96 16 -232 20 -302 l7 -128 -391 0 -392 0 0 980 0 980 120 0 120 0
0 1038 0 1039 -55 -5 c-31 -2 -75 1 -100 8 -39 11 -48 10 -72 -5 -16 -11 -47
-18 -80 -19 -61 0 -99 22 -123 72 -13 28 -20 32 -57 32 -23 0 -47 1 -55 3 -7
1 -195 0 -418 -3z m415 -3140 l0 -975 -409 -3 -409 -2 7 137 c3 76 11 190 16
253 6 63 24 313 40 555 17 242 39 558 50 703 11 144 20 274 20 287 l0 25 343
-2 342 -3 0 -975z"/>
<path d="M2907 3003 c-14 -13 -6 -44 24 -95 17 -29 50 -87 72 -128 22 -41 48
-87 59 -102 10 -14 18 -29 18 -32 0 -4 -26 -5 -58 -3 -81 5 -196 -10 -264 -35
-67 -24 -82 -39 -73 -69 8 -24 13 -24 145 11 71 19 101 22 188 17 56 -3 108
-10 115 -15 6 -6 30 -44 51 -85 l40 -74 -55 -50 c-94 -87 -182 -162 -236 -201
-51 -36 -72 -69 -58 -91 14 -23 48 -8 137 62 130 102 154 123 318 287 167 168
209 222 190 245 -22 27 -46 16 -97 -42 -28 -32 -72 -80 -98 -106 l-47 -49 -55
94 c-30 51 -70 122 -90 157 -19 35 -51 91 -72 125 -20 33 -53 89 -71 124 -26
46 -40 62 -56 62 -11 0 -24 -3 -27 -7z"/>
<path d="M18986 1391 c-6 -10 24 -25 32 -16 3 3 0 5 -7 5 -7 0 -9 5 -6 10 3 6
2 10 -4 10 -5 0 -12 -4 -15 -9z"/>
<path d="M19298 1383 c12 -2 32 -2 45 0 12 2 2 4 -23 4 -25 0 -35 -2 -22 -4z"/>
<path d="M18930 1376 c0 -9 30 -14 35 -6 4 6 -3 10 -14 10 -12 0 -21 -2 -21
-4z"/>
<path d="M18775 1330 c-14 -5 -6 -8 25 -7 25 1 54 -2 65 -7 l20 -8 -20 13
c-24 16 -63 19 -90 9z"/>
<path d="M18685 1296 l-30 -13 31 1 c17 1 31 6 31 14 0 6 -1 12 -1 12 -1 -1
-14 -7 -31 -14z"/>
<path d="M18622 1271 c-11 -7 -11 -9 0 -14 9 -3 15 1 15 9 0 8 -1 14 -1 14 -1
0 -7 -4 -14 -9z"/>
<path d="M18540 1210 c-11 -8 -7 -9 15 -4 37 8 45 14 19 14 -10 0 -26 -5 -34
-10z"/>
<path d="M18456 1182 c-3 -5 1 -9 9 -9 8 0 12 4 9 9 -3 4 -7 8 -9 8 -2 0 -6
-4 -9 -8z"/>
<path d="M18435 1163 c3 -3 -3 -11 -12 -18 -13 -9 -13 -14 -3 -20 9 -6 11 -4
5 5 -6 10 -4 12 7 7 16 -6 20 17 5 28 -4 3 -5 2 -2 -2z"/>
<path d="M18389 1128 c-5 -16 -4 -46 2 -42 4 2 7 13 6 24 -1 17 -5 26 -8 18z"/>
<path d="M18350 1084 c-11 -12 -10 -18 5 -32 18 -16 18 -16 6 1 -11 14 -11 20
-1 32 7 8 10 15 7 15 -2 0 -10 -7 -17 -16z"/>
<path d="M18848 1013 c6 -2 18 -2 25 0 6 3 1 5 -13 5 -14 0 -19 -2 -12 -5z"/>
<path d="M18438 993 c67 -2 177 -2 245 0 67 1 12 3 -123 3 -135 0 -190 -2
-122 -3z"/>
</g>
</svg>
