<svg xmlns="http://www.w3.org/2000/svg" viewBox="0 0 64 64"><rect width="4" height="21" x="57" y="31" fill="#bddbff"/><polygon fill="#bddbff" points="59.22 56 57 61 54.78 56 59.22 56"/><rect width="4" height="21" x="53" y="31" fill="#bddbff"/><path fill="#bddbff" d="M49 13H41a2.006 2.006 0 0 1-2-2V3zM19.83 27.17A4.008 4.008 0 1 1 17 26 4.025 4.025 0 0 1 19.83 27.17z"/><path fill="#3d9ae2" d="M61 24H53a1 1 0 0 0-1 1V52a1 1 0 0 0 .086.406l4 9a1 1 0 0 0 1.828 0l4-9A1 1 0 0 0 62 52V25A1 1 0 0 0 61 24zm-1 2v4H54V26zM54.539 53h4.922l-.889 2H55.428zM54 51V32h2V51zm4 0V32h2V51zm-1.683 6h1.366L57 58.538zM39.707 2.293A1 1 0 0 0 39 2H9A5.006 5.006 0 0 0 4 7V57a5.006 5.006 0 0 0 5 5H45a5.006 5.006 0 0 0 5-5V13a1 1 0 0 0-.293-.707zM40 5.414L46.586 12H41a1 1 0 0 1-1-1zM45 60H9a3 3 0 0 1-3-3V7A3 3 0 0 1 9 4H38v7a3 3 0 0 0 3 3h7V57A3 3 0 0 1 45 60z"/><path fill="#3d9ae2" d="M21.167,27.247l1.49-1.49-1.414-1.414-1.49,1.49A4.969,4.969,0,0,0,18,25.1V23H16v2.1a4.969,4.969,0,0,0-1.753.732l-1.49-1.49-1.414,1.414,1.49,1.49A4.961,4.961,0,0,0,12.1,29H10v2h2.1a4.961,4.961,0,0,0,.732,1.753l-1.49,1.49,1.414,1.414,1.49-1.49A4.969,4.969,0,0,0,16,34.9V37h2V34.9a4.969,4.969,0,0,0,1.753-.732l1.49,1.49,1.414-1.414-1.49-1.49A4.961,4.961,0,0,0,21.9,31H24V29H21.9A4.961,4.961,0,0,0,21.167,27.247ZM17,33a3,3,0,1,1,3-3A3,3,0,0,1,17,33Z"/><rect width="2" height="2" x="16" y="29" fill="#3d9ae2"/><path fill="#3d9ae2" d="M32,20V18H28a1,1,0,0,0-.707.293l-4,4,1.414,1.414L28.414,20Z"/><rect width="6" height="2" x="36" y="18" fill="#3d9ae2"/><rect width="6" height="2" x="36" y="22" fill="#3d9ae2"/><path fill="#3d9ae2" d="M18,41H16v6a1,1,0,0,0,1,1h6V46H18Z"/><rect width="2" height="2" x="27" y="46" fill="#3d9ae2"/><rect width="4" height="2" x="31" y="46" fill="#3d9ae2"/><rect width="8" height="2" x="27" y="50" fill="#3d9ae2"/><rect width="2" height="2" x="10" y="8" fill="#3d9ae2"/><rect width="4" height="2" x="14" y="8" fill="#3d9ae2"/><rect width="8" height="2" x="10" y="12" fill="#3d9ae2"/><path fill="#3d9ae2" d="M29,38h3V36H29.414l-2.707-2.707-1.414,1.414,3,3A1,1,0,0,0,29,38Z"/><rect width="6" height="2" x="36" y="36" fill="#3d9ae2"/><rect width="6" height="2" x="36" y="40" fill="#3d9ae2"/></svg>